<?xml version="1.0" encoding="UTF-8"?>
<svg xmlns="http://www.w3.org/2000/svg" xmlns:xlink="http://www.w3.org/1999/xlink" width="2112" height="2112" viewBox="0 0 2112 2112">
<rect x="-211.2" y="-211.2" width="2534.4" height="2534.4" fill="rgb(100%, 100%, 100%)" fill-opacity="1"/>
<path fill-rule="evenodd" fill="rgb(0%, 0%, 0%)" fill-opacity="1" d="M 1361.53125 1279.925781 C 1336.398438 1265.085938 1309.5 1252.082031 1281.191406 1241.035156 C 1292.160156 1197.457031 1298.898438 1150.0625 1300.480469 1100.328125 L 1421.570312 1100.328125 C 1417.53125 1166.460938 1396.070312 1227.863281 1361.53125 1279.925781 Z M 1198.878906 1415.035156 C 1226.128906 1381.71875 1249.210938 1339.175781 1266.449219 1290.023438 C 1288.480469 1299.261719 1309.5 1309.84375 1329.21875 1321.742188 C 1293.460938 1361.753906 1249 1393.761719 1198.878906 1415.035156 Z M 1078.660156 1442.015625 L 1078.660156 1249.351562 C 1129.140625 1251.347656 1177.351562 1259.898438 1222.199219 1274.039062 C 1193.789062 1365.902344 1144.101562 1429.996094 1078.660156 1442.015625 Z M 1078.660156 1100.328125 L 1248.890625 1100.328125 C 1247.660156 1144.507812 1242.859375 1186.546875 1234.789062 1225.125 C 1185.789062 1210.582031 1133.359375 1201.8125 1078.660156 1199.90625 Z M 1078.660156 950.699219 C 1133 948.808594 1185.140625 940.140625 1233.820312 925.761719 C 1242.46875 965.539062 1247.621094 1009.121094 1248.890625 1055 L 1078.660156 1055 Z M 1078.660156 713.320312 C 1143.089844 725.148438 1192.199219 787.421875 1220.871094 876.980469 C 1176.410156 890.878906 1128.628906 899.289062 1078.660156 901.261719 Z M 1326.480469 830.480469 C 1307.121094 841.96875 1286.570312 852.230469 1265.039062 861.179688 C 1247.910156 813.75 1225.339844 772.648438 1198.839844 740.261719 C 1247.699219 760.980469 1291.179688 791.890625 1326.480469 830.480469 Z M 1359.261719 871.96875 C 1395.140625 924.761719 1417.421875 987.421875 1421.570312 1055 L 1300.488281 1055 C 1298.859375 1003.609375 1291.691406 954.75 1280.039062 909.988281 C 1307.910156 899.179688 1334.449219 886.46875 1359.261719 871.96875 Z M 1033.339844 901.261719 C 983.359375 899.289062 935.582031 890.878906 891.160156 876.980469 C 919.789062 787.421875 968.9375 725.148438 1033.328125 713.320312 Z M 1033.339844 1055 L 863.109375 1055 C 864.371094 1009.109375 869.527344 965.539062 878.179688 925.761719 C 926.894531 940.140625 978.996094 948.808594 1033.328125 950.699219 Z M 1033.339844 1199.90625 C 978.636719 1201.808594 926.210938 1210.582031 877.207031 1225.125 C 869.128906 1186.546875 864.335938 1144.507812 863.109375 1100.328125 L 1033.339844 1100.328125 Z M 1033.339844 1442.015625 C 967.890625 1429.996094 918.238281 1365.902344 889.789062 1274.039062 C 934.648438 1259.898438 982.890625 1251.351562 1033.328125 1249.351562 Z M 782.773438 1321.742188 C 802.496094 1309.839844 823.515625 1299.261719 845.546875 1290.023438 C 862.785156 1339.175781 885.859375 1381.71875 913.121094 1415.035156 C 863 1393.761719 818.539062 1361.753906 782.773438 1321.742188 Z M 750.464844 1279.925781 C 715.960938 1227.863281 694.46875 1166.460938 690.429688 1100.328125 L 811.511719 1100.328125 C 813.097656 1150.0625 819.839844 1197.457031 830.835938 1241.035156 C 802.53125 1252.082031 775.597656 1265.085938 750.464844 1279.925781 Z M 752.738281 871.96875 C 777.546875 886.46875 804.082031 899.179688 831.953125 909.988281 C 820.308594 954.75 813.167969 1003.609375 811.507812 1055 L 690.429688 1055 C 694.574219 987.421875 716.859375 924.75 752.738281 871.96875 Z M 913.15625 740.261719 C 886.652344 772.648438 864.082031 813.75 846.992188 861.179688 C 825.464844 852.230469 804.875 841.96875 785.546875 830.480469 C 820.8125 791.890625 864.296875 760.980469 913.15625 740.261719 Z M 1400.511719 845.261719 C 1390.488281 830.390625 1379.410156 816.28125 1367.589844 802.878906 C 1291.441406 716.609375 1180.128906 662.128906 1056.019531 662.128906 C 931.90625 662.128906 820.558594 716.609375 744.40625 802.878906 C 732.578125 816.28125 721.546875 830.390625 711.484375 845.261719 C 666.628906 911.589844 640.453125 991.570312 640.453125 1077.660156 C 640.453125 1162.371094 665.871094 1241.117188 709.394531 1306.8125 C 719.3125 1321.800781 730.234375 1336.074219 741.953125 1349.617188 C 818.144531 1437.519531 930.535156 1493.203125 1056.019531 1493.203125 C 1181.460938 1493.203125 1293.851562 1437.519531 1370.039062 1349.617188 C 1381.800781 1336.074219 1392.679688 1321.800781 1402.601562 1306.8125 C 1446.121094 1241.117188 1471.539062 1162.371094 1471.539062 1077.660156 C 1471.539062 991.570312 1445.359375 911.589844 1400.511719 845.261719 "/>
<path fill-rule="evenodd" fill="rgb(100%, 0%, 0%)" fill-opacity="1" d="M 1438.160156 1513.628906 C 1204.78125 1708.988281 856.667969 1697.953125 636.234375 1479.410156 C 415.792969 1260.863281 401.746094 912.878906 595.078125 677.808594 Z M 673.839844 598.371094 C 907.21875 403.011719 1255.328125 414.039062 1475.761719 632.589844 C 1696.199219 851.140625 1710.261719 1199.121094 1516.921875 1434.1875 Z M 562.027344 566.289062 C 291.570312 839.101562 293.476562 1279.507812 566.28125 1549.96875 C 839.09375 1820.429688 1279.5 1818.527344 1549.96875 1545.710938 C 1820.429688 1272.898438 1818.519531 832.5 1545.710938 562.03125 C 1272.898438 291.570312 832.496094 293.46875 562.027344 566.289062 "/>
</svg>
